<svg id="svg" version="1.1" xmlns="http://www.w3.org/2000/svg" xmlns:xlink="http://www.w3.org/1999/xlink" width="400" height="400" viewBox="0, 0, 400,400"><g id="svgg"><path id="path0" d="M29.688 36.830 C 16.992 38.927,5.943 48.595,1.507 61.488 C -0.566 67.516,-0.882 294.404,1.174 301.326 C 5.366 315.442,17.438 325.565,32.147 327.299 L 36.719 327.838 36.719 200.638 L 36.719 73.438 200.000 73.438 L 363.281 73.438 363.281 200.638 L 363.281 327.838 367.853 327.299 C 382.562 325.565,394.634 315.442,398.826 301.326 C 400.882 294.404,400.566 67.516,398.493 61.488 C 393.937 48.246,382.999 38.907,369.531 36.759 C 363.065 35.728,35.945 35.796,29.688 36.830 M192.898 219.142 C 187.158 220.975,184.060 224.291,141.894 273.737 C 96.597 326.856,96.688 326.743,93.556 333.400 C 86.258 348.909,93.145 360.346,111.498 363.194 C 118.918 364.345,281.748 364.401,289.063 363.255 C 314.491 359.270,316.344 342.167,294.204 315.802 C 240.976 252.418,215.165 223.051,210.665 220.755 C 205.242 217.988,198.443 217.371,192.898 219.142 M227.394 294.922 L 254.018 326.172 227.009 326.377 C 212.154 326.490,187.924 326.490,173.163 326.377 L 146.327 326.172 172.968 294.780 C 187.621 277.514,199.871 263.452,200.190 263.530 C 200.509 263.608,212.751 277.734,227.394 294.922 " stroke="none" fill="#000000" fill-rule="evenodd"></path></g></svg>